<?xml version="1.0" standalone="no"?>
<!DOCTYPE svg PUBLIC "-//W3C//DTD SVG 20010904//EN"
 "http://www.w3.org/TR/2001/REC-SVG-20010904/DTD/svg10.dtd">
<svg version="1.0" xmlns="http://www.w3.org/2000/svg"
 width="500.000000pt" height="500.000000pt" viewBox="0 0 500.000000 500.000000"
 preserveAspectRatio="xMidYMid meet">
<metadata>
Created by potrace 1.11, written by Peter Selinger 2001-2013
</metadata>
<g transform="translate(0.000000,500.000000) scale(0.100000,-0.100000)"
fill="#000000" stroke="none">
<path d="M2589 4100 c0 -16 0 -392 0 -835 0 -443 0 -1149 0 -1570 l1 -765 207
2 207 3 0 538 1 538 58 67 c31 37 72 83 90 103 17 20 70 80 117 133 46 53 87
96 90 96 3 0 14 -15 25 -32 10 -18 80 -126 154 -240 75 -114 195 -298 266
-408 72 -110 167 -257 213 -328 46 -70 119 -183 164 -252 45 -69 95 -146 112
-172 l31 -47 248 -1 248 0 -33 47 c-18 26 -35 52 -38 58 -3 6 -71 109 -151
230 -316 475 -955 1441 -963 1452 -6 11 64 116 99 148 7 6 36 41 66 80 30 38
60 77 66 85 70 84 873 1094 873 1096 0 2 -110 4 -244 4 l-244 0 -53 -67 c-29
-38 -61 -77 -71 -88 -15 -17 -200 -249 -303 -380 -16 -21 -34 -43 -40 -49 -5
-6 -23 -29 -39 -51 -17 -22 -33 -42 -36 -45 -3 -3 -66 -81 -140 -175 -74 -93
-137 -172 -140 -175 -3 -3 -30 -36 -60 -75 -30 -38 -57 -72 -60 -75 -3 -3 -68
-84 -144 -180 -76 -96 -144 -181 -150 -188 -9 -9 -12 172 -12 768 l1 780 -207
0 -208 0 -1 -30z"/>
<path d="M977 3335 c-404 -67 -694 -323 -733 -647 l-5 -38 204 0 204 0 7 42
c31 193 241 329 508 330 112 0 194 -13 263 -42 124 -52 196 -109 244 -194 42
-73 59 -154 60 -295 l2 -121 -303 -1 c-167 0 -312 -2 -323 -4 -11 -2 -47 -7
-80 -10 -103 -10 -281 -49 -299 -66 -6 -5 -18 -9 -28 -9 -23 0 -181 -83 -232
-122 -184 -142 -277 -342 -270 -588 5 -201 91 -375 247 -501 78 -62 233 -137
322 -155 11 -2 31 -6 45 -9 118 -24 290 -21 415 6 165 35 291 96 432 211 40
32 75 58 77 58 3 0 7 -26 11 -58 3 -31 15 -87 26 -124 l20 -68 214 0 c240 0
226 -5 201 72 -17 51 -33 112 -40 153 -3 17 -8 39 -10 50 -16 81 -20 228 -21
800 -2 701 -4 722 -56 853 -106 266 -349 434 -694 481 -99 13 -316 11 -408 -4z
m741 -1254 c9 -1 12 -56 12 -239 l0 -238 -30 -47 c-84 -133 -237 -238 -419
-289 -84 -24 -264 -32 -335 -16 -23 5 -49 11 -59 13 -78 16 -189 97 -230 167
-58 99 -72 258 -32 358 66 165 268 266 575 287 47 3 86 6 87 7 2 1 413 -1 431
-3z"/>
</g>
</svg>
